<svg width="51" height="51" viewBox="0 0 51 51" fill="none" xmlns="http://www.w3.org/2000/svg">
<path d="M18.8808 2.13867H31.2581L18.4089 42.3437C18.1384 43.1912 17.3863 43.7613 16.5389 43.7613H6.90629C5.818 43.7613 4.93555 42.8293 4.93555 41.6801C4.93555 41.4535 4.97058 41.2291 5.03846 41.0141L17.0107 3.55735C17.2812 2.70984 18.0333 2.13867 18.8808 2.13867Z" fill="url(#paint0_linear_313_6947)"/>
<path d="M36.4287 29.2837H17.3362C16.8484 29.2826 16.4522 29.7074 16.4512 30.2305C16.4512 30.4943 16.5523 30.7456 16.7323 30.9249L29.0013 43.2049C29.3581 43.5624 29.8288 43.7611 30.3176 43.7611H41.1286L36.4287 29.2837Z" fill="white"/>
<path d="M18.6801 2.13869C17.835 2.13522 17.0871 2.7214 16.8324 3.58392L5.04988 40.9806C4.68832 42.0605 5.21285 43.2514 6.22089 43.6387C6.43243 43.7196 6.65584 43.7613 6.88141 43.7613H16.623C17.3612 43.6202 17.9721 43.0641 18.2214 42.3056L20.571 34.8876L28.9635 43.2733C29.3153 43.5855 29.7567 43.7578 30.2133 43.7613H41.1291L36.3414 29.1055L22.3853 29.109L30.9256 2.13869H18.6801Z" fill="url(#paint1_linear_313_6947)"/>
<path d="M32.9594 3.555C32.7027 2.70867 31.99 2.13867 31.1869 2.13867H18.0957C18.8978 2.13867 19.6116 2.70867 19.8672 3.55384L31.2284 41.013C31.5588 42.1021 31.0331 43.2826 30.0544 43.6503C29.8622 43.7243 29.6606 43.7613 29.457 43.7613H42.5481C43.5809 43.7613 44.4183 42.8294 44.4183 41.679C44.4183 41.4524 44.385 41.2281 44.3196 41.0142L32.9594 3.555Z" fill="url(#paint2_linear_313_6947)"/>
<defs>
<linearGradient id="paint0_linear_313_6947" x1="23.3923" y1="5.22374" x2="9.22472" y2="44.8569" gradientUnits="userSpaceOnUse">
<stop stop-color="#194498"/>
<stop offset="1" stop-color="white"/>
</linearGradient>
<linearGradient id="paint1_linear_313_6947" x1="27.0854" y1="23.9105" x2="24.1152" y2="24.8485" gradientUnits="userSpaceOnUse">
<stop stop-color="#194498"/>
<stop offset="0.071" stop-color="#145DEE"/>
<stop offset="0.321" stop-color="#194498"/>
<stop offset="0.623" stop-color="#194498"/>
<stop offset="1" stop-color="#194498"/>
</linearGradient>
<linearGradient id="paint2_linear_313_6947" x1="24.5836" y1="4.01689" x2="40.6907" y2="42.5806" gradientUnits="userSpaceOnUse">
<stop stop-color="#486FBC"/>
<stop offset="1" stop-color="#194498"/>
</linearGradient>
</defs>
</svg>
