<svg width="51" height="51" viewBox="0 0 51 51" fill="none" xmlns="http://www.w3.org/2000/svg">
<rect width="51" height="51" rx="10" fill="#194498"/>
<g clip-path="url(#clip0_344_6192)">
<path d="M24.8386 14.4852C23.3382 15.6227 21.6377 16.9119 20.7266 19.0448C19.144 22.7659 23.9649 26.8249 24.171 26.9959C24.2188 27.0356 24.2762 27.0554 24.3333 27.0554C24.394 27.0554 24.4548 27.0331 24.5041 26.9885C24.5998 26.9022 24.627 26.7557 24.5695 26.6363C24.5521 26.6001 22.8216 22.977 22.8859 20.3778C22.9087 19.4725 24.084 18.4456 25.3283 17.3583C26.468 16.3625 27.7598 15.2338 28.5156 13.9134C30.1749 11.007 28.3307 8.14919 28.3119 8.12061C28.2386 8.00973 28.1034 7.9696 27.9878 8.02422C27.8723 8.07918 27.8083 8.21379 27.8347 8.34688C27.8384 8.36582 28.1971 10.2557 27.1991 12.2028C26.788 13.0074 25.8847 13.6922 24.8386 14.4852Z" fill="white"/>
<path d="M31.1601 15.767C31.266 15.6811 31.2971 15.5244 31.2331 15.3993C31.169 15.2742 31.0294 15.219 30.9055 15.2697C30.6506 15.3742 24.6641 17.8616 24.6641 20.867C24.6641 22.9388 25.4851 24.0332 26.0846 24.8325C26.3197 25.1459 26.5228 25.4166 26.5897 25.6478C26.778 26.3138 26.3318 27.5176 26.1441 27.9253C26.09 28.0425 26.1166 28.1845 26.2086 28.2701C26.2583 28.3164 26.3204 28.3399 26.3825 28.3399C26.4354 28.3399 26.4886 28.3229 26.5345 28.2885C26.6374 28.2114 29.0501 26.3727 28.6174 24.1573C28.4562 23.3153 28.0723 22.7 27.7336 22.1571C27.2089 21.316 26.8299 20.7084 27.4048 19.5862C28.0785 18.2773 31.1293 15.7919 31.1601 15.767Z" fill="white"/>
<path d="M15.5759 28.3873C15.4733 28.7185 15.5218 29.0471 15.7159 29.3377C16.3649 30.3089 18.6636 30.8436 22.189 30.8436C22.1891 30.8436 22.1893 30.8436 22.1894 30.8436C22.6671 30.8436 23.1714 30.8335 23.6879 30.8136C29.3243 30.5961 31.4148 28.7034 31.5011 28.6229C31.5951 28.5352 31.6202 28.3892 31.5618 28.2711C31.5033 28.153 31.3773 28.0937 31.2569 28.1294C29.2718 28.7136 25.5651 28.921 22.9941 28.921C20.1172 28.921 18.6521 28.6976 18.2934 28.5327C18.4775 28.2603 19.6127 27.7738 21.0194 27.4756C21.1538 27.4471 21.2462 27.3133 21.2329 27.1663C21.2196 27.0193 21.1051 26.9072 20.968 26.9072C20.1434 26.9072 16.0082 26.9786 15.5759 28.3873Z" fill="white"/>
<path d="M34.4372 26.438C33.2747 26.438 32.1723 27.0661 32.1258 27.0927C32.0183 27.1547 31.9638 27.2876 31.9933 27.4153C32.0229 27.5428 32.1293 27.6324 32.2512 27.6326C32.2759 27.6326 34.731 27.6542 34.9534 29.1663C35.1504 30.4707 32.6304 32.5842 31.6428 33.2886C31.5361 33.3647 31.4947 33.5117 31.5442 33.6388C31.5864 33.747 31.6841 33.8147 31.7895 33.8147C31.8079 33.8147 31.8266 33.8127 31.8451 33.8084C32.0795 33.7544 37.5785 32.4481 36.9971 28.997C36.6424 26.882 35.4092 26.438 34.4372 26.438Z" fill="white"/>
<path d="M30.6666 32.8663C30.6857 32.7558 30.643 32.6433 30.5577 32.5787L29.2391 31.5832C29.1748 31.5347 29.0936 31.5195 29.0181 31.541C29.0043 31.5447 27.6255 31.9355 25.6236 32.1751C24.8291 32.2711 23.9392 32.3219 23.0499 32.3219C21.0485 32.3219 19.74 32.0684 19.5494 31.8824C19.5241 31.8302 19.5321 31.8065 19.5366 31.7933C19.5713 31.6895 19.7568 31.5662 19.8764 31.5174C20.0085 31.4647 20.0798 31.3101 20.0387 31.1649C19.9977 31.0195 19.8587 30.934 19.7216 30.9694C18.399 31.3135 17.7522 31.7946 17.7993 32.3994C17.8829 33.4717 20.187 34.022 22.1349 34.1675C22.415 34.1881 22.718 34.1986 23.0352 34.1986C23.0353 34.1986 23.0355 34.1986 23.0357 34.1986C26.2747 34.1986 30.4272 33.1031 30.4686 33.092C30.57 33.0653 30.6473 32.9771 30.6666 32.8663Z" fill="white"/>
<path d="M20.7255 35.1677C20.8254 35.0977 20.8697 34.9646 20.8342 34.842C20.7989 34.7195 20.6925 34.6389 20.5731 34.6407C20.3958 34.6457 18.8386 34.7215 18.7296 35.7901C18.6966 36.1095 18.7815 36.4013 18.9819 36.6573C19.541 37.3715 21.0503 37.7961 23.5951 37.9551C23.8962 37.9745 24.202 37.9843 24.5041 37.9843C27.7395 37.9843 29.9184 36.8924 30.0097 36.8459C30.0982 36.8008 30.1565 36.7071 30.1617 36.6018C30.1669 36.4965 30.1181 36.3967 30.0347 36.3416L28.3683 35.2452C28.3105 35.2071 28.2413 35.1946 28.1754 35.2091C28.1648 35.2115 27.1068 35.448 25.5101 35.6817C25.208 35.726 24.8296 35.7485 24.3857 35.7485C22.7907 35.7485 21.0166 35.4676 20.6764 35.2836C20.6714 35.2493 20.6777 35.2057 20.7255 35.1677Z" fill="white"/>
<path d="M22.9961 41.2812C30.4069 41.2745 34.3844 39.8539 35.1506 38.96C35.4219 38.6437 35.4512 38.3443 35.4281 38.1487C35.3712 37.6675 34.9645 37.3729 34.9184 37.3409C34.8071 37.2638 34.6578 37.2839 34.5711 37.3918C34.4845 37.4997 34.4825 37.6573 34.5694 37.7651C34.6161 37.8299 34.6431 37.9384 34.5065 38.0858C34.2001 38.3942 31.1107 39.3303 25.9667 39.6115C25.262 39.6509 24.5229 39.671 23.7701 39.6712C19.1644 39.6712 15.7937 38.9911 15.3512 38.5949C15.5217 38.3308 16.714 37.9088 17.982 37.6701C18.1249 37.6432 18.2214 37.4981 18.1993 37.3436C18.1771 37.1892 18.045 37.0829 17.9006 37.103C17.8648 37.1083 17.7435 37.1161 17.6029 37.1254C15.5108 37.2631 13.0932 37.5699 12.9671 38.7318C12.9288 39.0859 13.0264 39.4073 13.2573 39.687C13.8223 40.3713 15.4463 41.2811 22.9958 41.2811C22.996 41.2812 22.996 41.2812 22.9961 41.2812Z" fill="white"/>
<path d="M36.607 39.2116C36.5022 39.1594 36.3784 39.1858 36.3003 39.2767C36.2895 39.2893 35.1753 40.5452 31.8252 41.2826C30.5427 41.5596 28.1353 41.7001 24.6698 41.7001C21.1979 41.7001 17.8942 41.5529 17.8613 41.5514C17.7233 41.5441 17.6053 41.6523 17.5865 41.7987C17.5677 41.945 17.6552 42.0829 17.7885 42.1171C17.8228 42.1259 21.2851 43.0002 26.019 43.0002C28.2894 43.0002 30.4988 42.8015 32.5859 42.4092C36.4774 41.6739 36.7498 39.594 36.7595 39.5058C36.7731 39.3825 36.7116 39.2638 36.607 39.2116Z" fill="white"/>
</g>
<defs>
<clipPath id="clip0_344_6192">
<rect width="24" height="35" fill="white" transform="translate(13 8)"/>
</clipPath>
</defs>
</svg>
