<svg width="37" height="42" viewBox="0 0 37 42" fill="none" xmlns="http://www.w3.org/2000/svg">
<path d="M8.41667 16.7157L8.125 36.1197L0 31.6677L0.0416667 12.0117L8.41667 16.7157Z" fill="white"/>
<path d="M0.667969 10.7939L8.79297 6.00586L17.168 10.8779L9.04297 15.5819L0.667969 10.7939Z" fill="white"/>
<path d="M10.418 5.082L27.043 15.162L35.668 10.122L18.668 0L10.418 5.082Z" fill="white"/>
<path d="M9.75 27.2578V37.0858L17.875 41.9998V32.0878L9.75 27.2578Z" fill="white"/>
<path d="M19.75 32.1706L19.7917 41.9986L36.5833 32.8846V23.1406L19.75 32.1706Z" fill="white"/>
<path d="M36.5833 11.8008V21.2088L28 26.0808V16.5468L36.5833 11.8008Z" fill="white"/>
<path d="M18.875 11.8438V21.1678L26.4167 25.7457V16.3797L18.875 11.8438Z" fill="white"/>
<path d="M9.75 16.7587V25.7467L17.875 21.0427V12.1387L9.75 16.7587Z" fill="white"/>
<path d="M10.918 26.2928L18.8346 30.9548L26.418 26.8808L18.3763 22.0508L10.918 26.2928Z" fill="white"/>
</svg>
