<svg width="44" height="50" viewBox="0 0 44 50" fill="none" xmlns="http://www.w3.org/2000/svg">
<path d="M10.1 19.8988L9.75 42.9988L0 37.6988L0.05 14.2988L10.1 19.8988Z" fill="#293560"/>
<path d="M0.800781 12.8484L10.5508 7.14844L20.6008 12.9484L10.8508 18.5484L0.800781 12.8484Z" fill="#293560"/>
<path d="M12.502 6.05L32.452 18.05L42.802 12.05L22.402 0L12.502 6.05Z" fill="#293560"/>
<path d="M11.6992 32.4492V44.1492L21.4492 49.9992V38.1992L11.6992 32.4492Z" fill="#293560"/>
<path d="M23.6992 38.3008L23.7492 50.0008L43.8992 39.1508V27.5508L23.6992 38.3008Z" fill="#293560"/>
<path d="M43.8996 14.0508V25.2508L33.5996 31.0508V19.7008L43.8996 14.0508Z" fill="#293560"/>
<path d="M22.6504 14.0996V25.1996L31.7004 30.6496V19.4996L22.6504 14.0996Z" fill="#8A9CC0"/>
<path d="M11.6992 19.9492V30.6492L21.4492 25.0492V14.4492L11.6992 19.9492Z" fill="#8A9CC0"/>
<path d="M13.1016 31.2998L22.6016 36.8498L31.7016 31.9998L22.0516 26.2498L13.1016 31.2998Z" fill="#8A9CC0"/>
</svg>
