<svg width="51" height="51" viewBox="0 0 51 51" fill="none" xmlns="http://www.w3.org/2000/svg">
<path d="M31.8064 50.9999C33.5626 50.9999 35.0941 49.4921 35.0941 47.763V40.2037H37.2894C38.6068 40.2037 39.4847 39.339 39.4847 38.0424V16.4517H13.1621V38.0425C13.1621 39.3393 14.0402 40.2038 15.3574 40.2038H17.5529V47.7632C17.5529 49.4922 19.084 51 20.8406 51C22.5967 51 24.128 49.4922 24.128 47.7632V40.2038H28.5188V47.7632C28.5186 49.4921 30.0501 50.9999 31.8064 50.9999Z" fill="#194498"/>
<path d="M44.4194 37.8388C46.1771 37.8388 47.7096 36.3454 47.7096 34.6325V19.6566C47.7096 17.9529 46.1771 16.4517 44.4194 16.4517C42.6615 16.4517 41.1289 17.9529 41.1289 19.6566V34.6325C41.1289 36.3452 42.6614 37.8388 44.4194 37.8388Z" fill="#194498"/>
<path d="M8.22569 37.8388C9.98356 37.8388 11.5162 36.3454 11.5162 34.6325V19.6566C11.5162 17.9529 9.98374 16.4517 8.22569 16.4517C6.468 16.4517 4.93555 17.9529 4.93555 19.6566V34.6325C4.93555 36.3452 6.468 37.8388 8.22569 37.8388Z" fill="#194498"/>
<path d="M36.8502 0.321909C36.4113 -0.107303 35.7579 -0.107303 35.319 0.321909L32.3746 3.17361L32.2388 3.30544C30.4929 2.45588 28.5354 2.0316 26.3556 2.02752C26.3449 2.02752 26.3344 2.02718 26.3237 2.02718H26.3233C26.3123 2.02718 26.3021 2.02752 26.2911 2.02752C24.1114 2.0316 22.1539 2.45588 20.4082 3.30544L20.272 3.17361L17.3278 0.321909C16.8886 -0.107303 16.2355 -0.107303 15.7966 0.321909C15.3574 0.748737 15.3574 1.38216 15.7966 1.80865L18.6448 4.5769C17.7271 5.17235 16.8949 5.90098 16.1712 6.73437C14.4386 8.73004 13.3335 11.3273 13.1816 14.1413C13.1802 14.1706 13.1772 14.1996 13.1758 14.2289C13.1665 14.4205 13.1621 14.6131 13.1621 14.8065H39.4847C39.4847 14.6131 39.48 14.4205 39.471 14.2289C39.4696 14.1996 39.4666 14.1706 39.4649 14.1413C39.3133 11.3273 38.2078 8.72987 36.4753 6.73454C35.7519 5.90115 34.9194 5.17252 34.0016 4.57707L36.8502 1.80882C37.2894 1.38216 37.2894 0.748737 36.8502 0.321909ZM20.8364 11.0817C19.9281 11.0817 19.1918 10.3662 19.1918 9.48354C19.1918 8.60093 19.9281 7.88541 20.8364 7.88541C21.7447 7.88541 22.481 8.60093 22.481 9.48354C22.481 10.3662 21.7447 11.0817 20.8364 11.0817ZM31.8104 11.0817C30.9021 11.0817 30.1658 10.3662 30.1658 9.48354C30.1658 8.60093 30.9021 7.88541 31.8104 7.88541C32.7187 7.88541 33.455 8.60093 33.455 9.48354C33.455 10.3662 32.7187 11.0817 31.8104 11.0817Z" fill="#194498"/>
</svg>
