<svg width="51" height="51" viewBox="0 0 51 51" fill="none" xmlns="http://www.w3.org/2000/svg">
<rect width="51" height="51" rx="10" fill="#194498"/>
<path d="M10.8327 31.2498C11.2084 31.2498 11.5687 31.3991 11.8344 31.6648C12.1001 31.9304 12.2493 32.2908 12.2493 32.6665C12.2493 33.0422 12.1001 33.4026 11.8344 33.6682C11.5687 33.9339 11.2084 34.0832 10.8327 34.0832C10.457 34.0832 10.0966 33.9339 9.83095 33.6682C9.56527 33.4026 9.41602 33.0422 9.41602 32.6665C9.41602 32.2908 9.56527 31.9304 9.83095 31.6648C10.0966 31.3991 10.457 31.2498 10.8327 31.2498ZM37.7494 34.0832H34.916V22.7498H32.0827V19.9165H40.5827V22.7498H37.7494V34.0832ZM30.666 19.9165V22.7498H27.8327V25.5832H30.666V28.4165H27.8327V31.2498H30.666V34.0832H24.9994V19.9165H30.666ZM23.5827 19.9165V34.0832H20.7494L16.4994 25.5832V34.0832H13.666V19.9165H16.4994L20.7494 28.4165V19.9165H23.5827Z" fill="white"/>
</svg>
