<svg width="40" height="40" viewBox="0 0 40 40" fill="none" xmlns="http://www.w3.org/2000/svg">
<circle cx="20" cy="20" r="19.5" stroke="#293560"/>
<g clip-path="url(#clip0_2825_252)">
<path d="M22.9592 20.8301L21.2841 22.5108C20.6049 23.1925 19.4097 23.2071 18.7158 22.5108L17.0407 20.8301L11.0244 26.8659C11.2484 26.9695 11.4953 27.0313 11.7578 27.0313H28.2421C28.5046 27.0313 28.7515 26.9695 28.9754 26.8659L22.9592 20.8301Z" fill="#293560"/>
<path d="M28.2422 12.9688H11.7578C11.4953 12.9688 11.2484 13.0305 11.0245 13.1341L17.4533 19.5842C17.4538 19.5846 17.4543 19.5847 17.4547 19.5852C17.4551 19.5856 17.4552 19.5862 17.4552 19.5862L19.5456 21.6834C19.7676 21.9055 20.2325 21.9055 20.4545 21.6834L22.5445 19.5865C22.5445 19.5865 22.545 19.5856 22.5454 19.5852C22.5454 19.5852 22.5463 19.5846 22.5468 19.5842L28.9754 13.1341C28.7515 13.0305 28.5047 12.9688 28.2422 12.9688Z" fill="#293560"/>
<path d="M10.187 13.9536C10.0711 14.1879 10 14.448 10 14.7266V25.2734C10 25.552 10.071 25.8121 10.1869 26.0464L16.2136 20.0002L10.187 13.9536Z" fill="#293560"/>
<path d="M29.8131 13.9535L23.7865 20.0002L29.8131 26.0465C29.929 25.8122 30.0001 25.5521 30.0001 25.2734V14.7266C30.0001 14.4479 29.929 14.1878 29.8131 13.9535Z" fill="#293560"/>
</g>
<defs>
<clipPath id="clip0_2825_252">
<rect width="20" height="20" fill="white" transform="translate(10 10)"/>
</clipPath>
</defs>
</svg>
