<svg width="51" height="51" viewBox="0 0 51 51" fill="none" xmlns="http://www.w3.org/2000/svg">
<path d="M36.6914 0C33.5082 0.188063 29.7877 1.92845 27.6195 4.19477C25.6417 6.25071 24.0147 9.30435 24.649 12.2719C28.127 12.3644 31.7207 10.5825 33.803 8.27797C35.751 6.13278 37.225 3.09826 36.6914 0Z" fill="#194498"/>
<path d="M46.4755 17.1649C43.7788 13.8967 39.9889 12 36.4097 12C31.6847 12 29.686 14.1863 26.4032 14.1863C23.0183 14.1863 20.4467 12.0064 16.3605 12.0064C12.3467 12.0064 8.07281 14.3772 5.36292 18.4315C1.55327 24.1406 2.20523 34.8747 8.37903 44.0176C10.5884 47.289 13.5387 50.9678 17.3977 50.9997C20.832 51.0315 21.8 48.8707 26.4526 48.8484C31.1052 48.8229 31.9876 51.0283 35.4153 50.9933C39.2777 50.9646 42.3893 46.8881 44.5986 43.6166C46.1824 41.2712 46.7718 40.0906 48 37.4429C39.0669 34.1555 37.6346 21.878 46.4755 17.1649Z" fill="#194498"/>
</svg>
