<svg width="51" height="51" viewBox="0 0 51 51" fill="none" xmlns="http://www.w3.org/2000/svg">
<path d="M24.5553 1.96143C24.3012 1.96303 24.0478 1.99126 23.799 2.04571L23.7954 2.04188L4.96549 5.95346L4.96181 5.95729C4.09821 6.12756 3.31883 6.60522 2.75788 7.30802C2.19694 8.01082 1.88956 8.89475 1.88867 9.80758V41.1922C1.88886 42.1062 2.19638 42.9915 2.75813 43.6952C3.31988 44.3988 4.1006 44.8767 4.96549 45.0463L23.7954 48.9579C24.0454 49.0113 24.3 49.0383 24.5553 49.0383C25.5573 49.0383 26.5182 48.625 27.2266 47.8893C27.9351 47.1536 28.3331 46.1557 28.3331 45.1153V5.8845C28.3331 4.84404 27.9351 3.84619 27.2266 3.11047C26.5182 2.37475 25.5573 1.96143 24.5553 1.96143ZM32.1109 7.84604V11.7691V15.6922V19.6153C34.0642 19.6153 35.7884 18.5907 36.8073 17.0293C38.2536 17.8921 39.4418 19.1278 40.2715 20.6305C39.5044 21.1688 38.8759 21.8941 38.4412 22.743C38.0064 23.5919 37.7786 24.5384 37.7776 25.4999C37.778 26.462 38.0055 27.4093 38.4403 28.2589C38.8751 29.1085 39.5038 29.8344 40.2715 30.3731C39.4419 31.8746 38.2527 33.1082 36.8073 33.9705C35.7884 32.4091 34.0642 31.3845 32.1109 31.3845V35.3076V39.2307V43.1537C35.0275 43.1537 37.4011 40.8584 37.7148 37.9166C40.4935 36.556 42.7414 34.2249 44.0566 31.3424C45.444 31.1857 46.727 30.503 47.6597 29.4248C48.5923 28.3467 49.1091 26.9491 49.1109 25.4999C49.1099 24.0494 48.593 22.6504 47.6595 21.5714C46.726 20.4923 45.4417 19.8094 44.053 19.6536C42.7374 16.7731 40.492 14.443 37.7148 13.0832C37.4011 10.1414 35.0275 7.84604 32.1109 7.84604ZM15.9336 15.6884C18.5327 15.6884 19.872 16.1691 20.4935 16.4163V20.3738C20.1875 20.1541 18.5329 19.0521 16.1623 19.0521C13.2402 19.0521 13.0929 20.6754 13.0929 20.9677C13.0929 24.1454 21.2977 23.3818 21.2977 29.6528C21.2977 33.0502 19.0483 35.3114 14.0484 35.3114C11.2094 35.3114 9.5003 34.6071 8.83919 34.254V30.0206C9.57775 30.664 11.2306 31.9477 13.8713 31.9477C14.3889 31.9477 16.9629 31.872 16.9629 30.0321C16.9629 26.7073 8.75803 27.5126 8.75803 21.324C8.75803 18.7308 10.316 15.6884 15.9336 15.6884Z" fill="#194498"/>
</svg>
