<svg width="200" height="42" viewBox="0 0 200 42" fill="none" xmlns="http://www.w3.org/2000/svg">
<g clip-path="url(#clip0_2758_4687)">
<path d="M8.41667 16.7157L8.125 36.1197L0 31.6677L0.0416667 12.0117L8.41667 16.7157Z" fill="white"/>
<path d="M0.667969 10.7939L8.79297 6.00586L17.168 10.8779L9.04297 15.5819L0.667969 10.7939Z" fill="white"/>
<path d="M10.418 5.082L27.043 15.162L35.668 10.122L18.668 0L10.418 5.082Z" fill="white"/>
<path d="M9.75 27.2578V37.0858L17.875 41.9998V32.0878L9.75 27.2578Z" fill="white"/>
<path d="M19.75 32.1706L19.7917 41.9986L36.5833 32.8846V23.1406L19.75 32.1706Z" fill="white"/>
<path d="M36.5833 11.8008V21.2088L28 26.0808V16.5468L36.5833 11.8008Z" fill="white"/>
<path d="M18.875 11.8438V21.1678L26.4167 25.7457V16.3797L18.875 11.8438Z" fill="white"/>
<path d="M9.75 16.7587V25.7467L17.875 21.0427V12.1387L9.75 16.7587Z" fill="white"/>
<path d="M10.918 26.2928L18.8346 30.9548L26.418 26.8808L18.3763 22.0508L10.918 26.2928Z" fill="white"/>
<path d="M51.7904 27.5923C51.7904 26.8783 51.4987 26.3323 50.957 25.9543C50.4154 25.5763 49.4987 25.2403 48.207 24.9463C46.9154 24.6523 45.8737 24.2743 44.9987 23.8543C43.1237 22.8883 42.1654 21.4603 42.1654 19.6123C42.1654 18.0583 42.7904 16.7563 43.9987 15.7063C45.207 14.6563 46.7487 14.1523 48.6237 14.1523C50.6237 14.1523 52.2487 14.6983 53.457 15.7483C54.707 16.7983 55.2904 18.1843 55.2904 19.9063H51.5404C51.5404 19.1083 51.2904 18.4783 50.7487 17.9743C50.207 17.4703 49.4987 17.2183 48.6237 17.2183C47.7904 17.2183 47.1237 17.4283 46.6237 17.8483C46.1237 18.2683 45.832 18.8143 45.832 19.4863C45.832 20.1163 46.082 20.5783 46.5404 20.9563C47.0404 21.2923 47.9987 21.6283 49.4987 22.0063C50.957 22.3423 52.1237 22.7623 52.957 23.2663C53.7904 23.7703 54.4154 24.3163 54.832 24.9883C55.2487 25.6603 55.457 26.5003 55.457 27.4663C55.457 29.1043 54.832 30.4063 53.582 31.4143C52.332 32.4223 50.707 32.9263 48.6654 32.9263C47.2904 32.9263 46.082 32.6743 44.9987 32.1283C43.9154 31.5823 43.082 30.8683 42.4987 29.9443C41.9154 29.0203 41.582 28.0123 41.582 26.9203H45.2487C45.2904 27.8863 45.6237 28.6003 46.2487 29.1463C46.8737 29.6923 47.707 29.9023 48.707 29.9023C49.707 29.9023 50.457 29.6923 50.957 29.3143C51.5404 28.8103 51.7904 28.2643 51.7904 27.5923Z" fill="white"/>
<path d="M58.082 23.3093C58.082 21.5453 58.4154 19.9493 59.0404 18.5213C59.707 17.0933 60.582 16.0013 61.7904 15.2453C62.957 14.4893 64.332 14.1113 65.832 14.1113C68.082 14.1113 69.9154 14.9093 71.332 16.4633C72.7487 18.0173 73.4987 20.1173 73.6237 22.7213V23.6873C73.6237 25.4513 73.2904 27.0473 72.6654 28.4753C72.0404 29.9033 71.1237 30.9533 69.957 31.7093C68.7904 32.4653 67.4154 32.8433 65.8737 32.8433C63.4987 32.8433 61.6237 32.0033 60.207 30.2813C58.7904 28.6013 58.082 26.3333 58.082 23.5193V23.3093ZM61.832 23.6873C61.832 25.5353 62.207 27.0053 62.9154 28.0553C63.6237 29.1053 64.6237 29.6513 65.8737 29.6513C67.1237 29.6513 68.1237 29.1053 68.832 28.0553C69.5404 27.0053 69.8737 25.4093 69.8737 23.3513C69.8737 21.5453 69.4987 20.0753 68.7904 19.0253C68.082 17.9753 67.082 17.4293 65.832 17.4293C64.6237 17.4293 63.6237 17.9753 62.9154 19.0253C62.207 20.0333 61.832 21.5873 61.832 23.6873Z" fill="white"/>
<path d="M78.1237 32.5077V17.4717H75.582V14.4897H78.1237V12.8517C78.1237 10.8357 78.6237 9.32375 79.6654 8.23175C80.707 7.13975 82.1237 6.59375 83.9987 6.59375C84.6654 6.59375 85.3737 6.67775 86.082 6.88775L85.9987 10.0377C85.582 9.95375 85.1237 9.91175 84.5404 9.91175C82.7487 9.91175 81.832 10.9198 81.832 12.8937V14.4897H85.2487V17.4717H81.832V32.5077H78.1237Z" fill="white"/>
<path d="M92.75 10.0801V14.4481H95.7083V17.4301H92.75V27.5101C92.75 28.1821 92.875 28.6861 93.125 29.0221C93.375 29.3161 93.8333 29.4841 94.4583 29.4841C94.875 29.4841 95.3333 29.4421 95.7917 29.3161V32.4661C94.9167 32.7181 94.125 32.8441 93.3333 32.8441C90.4583 32.8441 89 31.1221 89 27.6781V17.4721H86.25V14.4901H89V10.0801H92.75Z" fill="white"/>
<path d="M113.25 26.9213L115.917 14.4473H119.583L115.042 32.5073H111.958L108.333 20.1173L104.792 32.5073H101.708L97.125 14.4473H100.792L103.5 26.7533L106.917 14.4473H109.75L113.25 26.9213Z" fill="white"/>
<path d="M132.082 32.5073C131.915 32.1713 131.79 31.5833 131.665 30.8273C130.457 32.1713 128.999 32.8433 127.29 32.8433C125.624 32.8433 124.249 32.3393 123.165 31.2893C122.124 30.2393 121.582 28.9793 121.582 27.4673C121.582 25.5353 122.249 24.0653 123.582 23.0573C124.915 22.0493 126.79 21.5033 129.249 21.5033H131.54V20.3273C131.54 19.4033 131.29 18.6473 130.832 18.1013C130.332 17.5553 129.624 17.2613 128.624 17.2613C127.749 17.2613 127.082 17.4713 126.54 17.9333C125.999 18.3953 125.707 18.9833 125.707 19.6973H121.957C121.957 18.6893 122.249 17.7653 122.874 16.9253C123.499 16.0433 124.29 15.3713 125.374 14.9093C126.415 14.4053 127.582 14.1953 128.874 14.1953C130.832 14.1953 132.374 14.7413 133.54 15.7913C134.707 16.8413 135.29 18.3533 135.332 20.2853V28.4333C135.332 30.0713 135.54 31.3313 135.957 32.3393V32.6333H132.082V32.5073ZM127.957 29.6093C128.707 29.6093 129.415 29.3993 130.04 29.0213C130.707 28.6433 131.207 28.0973 131.499 27.4673V24.0653H129.457C128.082 24.0653 126.999 24.3173 126.332 24.8633C125.624 25.3673 125.29 26.1233 125.29 27.0893C125.29 27.8873 125.54 28.4753 125.999 28.9373C126.499 29.3573 127.165 29.6093 127.957 29.6093Z" fill="white"/>
<path d="M148 18.1863C147.5 18.1023 147 18.0603 146.458 18.0603C144.75 18.0603 143.583 18.7743 143 20.2023V32.5503H139.25V14.4903H142.833L142.917 16.5063C143.833 14.9523 145.083 14.1543 146.708 14.1543C147.25 14.1543 147.667 14.2383 148.042 14.4063L148 18.1863Z" fill="white"/>
<path d="M150.375 9.78556C150.375 9.15556 150.542 8.65156 150.917 8.23156C151.292 7.81156 151.792 7.60156 152.5 7.60156C153.208 7.60156 153.708 7.81156 154.083 8.23156C154.458 8.65156 154.625 9.15556 154.625 9.78556C154.625 10.4156 154.458 10.9196 154.083 11.2976C153.708 11.6756 153.167 11.8856 152.5 11.8856C151.833 11.8856 151.292 11.6756 150.917 11.2976C150.542 10.9196 150.375 10.4156 150.375 9.78556ZM154.375 32.5076H150.625V14.4476H154.375V32.5076Z" fill="white"/>
<path d="M168.582 30.7442C167.499 32.1302 165.915 32.8442 163.874 32.8442C162.04 32.8442 160.665 32.2562 159.749 31.1222C158.832 29.9882 158.332 28.3082 158.332 26.1662V14.4902H162.082V26.1242C162.082 28.4342 162.957 29.5682 164.707 29.5682C166.54 29.5682 167.749 28.8542 168.415 27.4682V14.4902H172.165V32.5502H168.624L168.582 30.7442Z" fill="white"/>
<path d="M179.582 14.4883L179.707 16.3783C180.874 14.9083 182.499 14.1523 184.54 14.1523C186.79 14.1523 188.29 15.0763 189.124 16.9243C190.332 15.0763 192.04 14.1523 194.249 14.1523C196.082 14.1523 197.457 14.6983 198.374 15.7903C199.29 16.8823 199.749 18.5203 199.749 20.6623V32.5063H195.999V20.7463C195.999 19.6123 195.749 18.7723 195.29 18.2263C194.832 17.6803 194.04 17.4283 192.999 17.4283C192.124 17.4283 191.457 17.6803 190.915 18.1843C190.374 18.6883 189.999 19.3183 189.79 20.1163V32.5063H186.04V20.6623C185.999 18.5203 184.999 17.4703 183.04 17.4703C181.54 17.4703 180.457 18.1423 179.832 19.4443V32.5063H176.082V14.4463H179.582V14.4883Z" fill="white"/>
</g>
<defs>
<clipPath id="clip0_2758_4687">
<rect width="200" height="42" fill="white"/>
</clipPath>
</defs>
</svg>
