<svg width="240" height="50" viewBox="0 0 240 50" fill="none" xmlns="http://www.w3.org/2000/svg">
<g clip-path="url(#clip0_2758_3895)">
<g clip-path="url(#clip1_2758_3895)">
<path d="M10.1 19.8988L9.75 42.9988L0 37.6988L0.05 14.2988L10.1 19.8988Z" fill="#DCDFEB"/>
<path d="M0.798828 12.8484L10.5488 7.14844L20.5988 12.9484L10.8488 18.5484L0.798828 12.8484Z" fill="#DCDFEB"/>
<path d="M12.5 6.05L32.45 18.05L42.8 12.05L22.4 0L12.5 6.05Z" fill="#DCDFEB"/>
<path d="M11.6992 32.4492V44.1492L21.4492 49.9992V38.1992L11.6992 32.4492Z" fill="#DCDFEB"/>
<path d="M23.6992 38.3008L23.7492 50.0008L43.8992 39.1508V27.5508L23.6992 38.3008Z" fill="#DCDFEB"/>
<path d="M43.8996 14.0508V25.2508L33.5996 31.0508V19.7008L43.8996 14.0508Z" fill="#DCDFEB"/>
<path d="M22.6504 14.0996V25.1996L31.7004 30.6496V19.4996L22.6504 14.0996Z" fill="#DCDFEB"/>
<path d="M11.6992 19.9492V30.6492L21.4492 25.0492V14.4492L11.6992 19.9492Z" fill="#DCDFEB"/>
<path d="M13.0996 31.3L22.5996 36.85L31.6996 32L22.0496 26.25L13.0996 31.3Z" fill="#DCDFEB"/>
<path d="M62.1504 32.8477C62.1504 31.9977 61.8004 31.3477 61.1504 30.8977C60.5004 30.4477 59.4004 30.0477 57.8504 29.6977C56.3004 29.3477 55.0504 28.8977 54.0004 28.3977C51.7504 27.2477 50.6004 25.5477 50.6004 23.3477C50.6004 21.4977 51.3504 19.9477 52.8004 18.6977C54.2504 17.4477 56.1004 16.8477 58.3504 16.8477C60.7504 16.8477 62.7004 17.4977 64.1504 18.7477C65.6504 19.9977 66.3504 21.6477 66.3504 23.6977H61.8504C61.8504 22.7477 61.5504 21.9977 60.9004 21.3977C60.2504 20.7977 59.4004 20.4977 58.3504 20.4977C57.3504 20.4977 56.5504 20.7477 55.9504 21.2477C55.3504 21.7477 55.0004 22.3977 55.0004 23.1977C55.0004 23.9477 55.3004 24.4977 55.8504 24.9477C56.4504 25.3477 57.6004 25.7477 59.4004 26.1977C61.1504 26.5977 62.5504 27.0977 63.5504 27.6977C64.5504 28.2977 65.3004 28.9477 65.8004 29.7477C66.3004 30.5477 66.5504 31.5477 66.5504 32.6977C66.5504 34.6477 65.8004 36.1977 64.3004 37.3977C62.8004 38.5977 60.8504 39.1977 58.4004 39.1977C56.7504 39.1977 55.3004 38.8977 54.0004 38.2477C52.7004 37.5977 51.7004 36.7477 51.0004 35.6477C50.3004 34.5477 49.9004 33.3477 49.9004 32.0477H54.3004C54.3504 33.1977 54.7504 34.0477 55.5004 34.6977C56.2504 35.3477 57.2504 35.5977 58.4504 35.5977C59.6504 35.5977 60.5504 35.3477 61.1504 34.8977C61.8504 34.2977 62.1504 33.6477 62.1504 32.8477Z" fill="#171F39"/>
<path d="M69.7012 27.7488C69.7012 25.6488 70.1012 23.7488 70.8512 22.0488C71.6512 20.3488 72.7012 19.0488 74.1512 18.1488C75.5512 17.2488 77.2012 16.7988 79.0012 16.7988C81.7012 16.7988 83.9012 17.7488 85.6012 19.5988C87.3012 21.4488 88.2012 23.9488 88.3512 27.0488V28.1988C88.3512 30.2988 87.9512 32.1988 87.2012 33.8988C86.4512 35.5988 85.3512 36.8488 83.9512 37.7488C82.5512 38.6488 80.9012 39.0988 79.0512 39.0988C76.2012 39.0988 73.9512 38.0988 72.2512 36.0488C70.5512 34.0488 69.7012 31.3488 69.7012 27.9988V27.7488ZM74.2012 28.1988C74.2012 30.3988 74.6512 32.1488 75.5012 33.3988C76.3512 34.6488 77.5512 35.2988 79.0512 35.2988C80.5512 35.2988 81.7512 34.6488 82.6012 33.3988C83.4512 32.1488 83.8512 30.2488 83.8512 27.7988C83.8512 25.6488 83.4012 23.8988 82.5512 22.6488C81.7012 21.3988 80.5012 20.7488 79.0012 20.7488C77.5512 20.7488 76.3512 21.3988 75.5012 22.6488C74.6512 23.8488 74.2012 25.6988 74.2012 28.1988Z" fill="#171F39"/>
<path d="M93.7512 38.6996V20.7996H90.7012V17.2496H93.7512V15.2996C93.7512 12.8996 94.3512 11.0996 95.6012 9.79961C96.8512 8.49961 98.5512 7.84961 100.801 7.84961C101.601 7.84961 102.451 7.94961 103.301 8.19961L103.201 11.9496C102.701 11.8496 102.151 11.7996 101.451 11.7996C99.3012 11.7996 98.2012 12.9996 98.2012 15.3496V17.2496H102.301V20.7996H98.2012V38.6996H93.7512Z" fill="#171F39"/>
<path d="M111.3 12V17.2H114.85V20.75H111.3V32.75C111.3 33.55 111.45 34.15 111.75 34.55C112.05 34.9 112.6 35.1 113.35 35.1C113.85 35.1 114.4 35.05 114.95 34.9V38.65C113.9 38.95 112.95 39.1 112 39.1C108.55 39.1 106.8 37.05 106.8 32.95V20.8H103.5V17.25H106.8V12H111.3Z" fill="#171F39"/>
<path d="M135.899 32.0492L139.099 17.1992H143.499L138.049 38.6992H134.349L129.999 23.9492L125.749 38.6992H122.049L116.549 17.1992H120.949L124.199 31.8492L128.299 17.1992H131.699L135.899 32.0492Z" fill="#171F39"/>
<path d="M158.5 38.6984C158.3 38.2984 158.15 37.5984 158 36.6984C156.55 38.2984 154.8 39.0984 152.75 39.0984C150.75 39.0984 149.1 38.4984 147.8 37.2484C146.55 35.9984 145.9 34.4984 145.9 32.6984C145.9 30.3984 146.7 28.6484 148.3 27.4484C149.9 26.2484 152.15 25.5984 155.1 25.5984H157.85V24.1984C157.85 23.0984 157.55 22.1984 157 21.5484C156.4 20.8984 155.55 20.5484 154.35 20.5484C153.3 20.5484 152.5 20.7984 151.85 21.3484C151.2 21.8984 150.85 22.5984 150.85 23.4484H146.35C146.35 22.2484 146.7 21.1484 147.45 20.1484C148.2 19.0984 149.15 18.2984 150.45 17.7484C151.7 17.1484 153.1 16.8984 154.65 16.8984C157 16.8984 158.85 17.5484 160.25 18.7984C161.65 20.0484 162.35 21.8484 162.4 24.1484V33.8484C162.4 35.7984 162.65 37.2984 163.15 38.4984V38.8484H158.5V38.6984ZM153.55 35.2484C154.45 35.2484 155.3 34.9984 156.05 34.5484C156.85 34.0984 157.45 33.4484 157.8 32.6984V28.6484H155.35C153.7 28.6484 152.4 28.9484 151.6 29.5984C150.75 30.1984 150.35 31.0984 150.35 32.2484C150.35 33.1984 150.65 33.8984 151.2 34.4484C151.8 34.9484 152.6 35.2484 153.55 35.2484Z" fill="#171F39"/>
<path d="M177.6 21.6516C177 21.5516 176.4 21.5016 175.75 21.5016C173.7 21.5016 172.3 22.3516 171.6 24.0516V38.7516H167.1V17.2516H171.4L171.5 19.6516C172.6 17.8016 174.1 16.8516 176.05 16.8516C176.7 16.8516 177.2 16.9516 177.65 17.1516L177.6 21.6516Z" fill="#171F39"/>
<path d="M180.449 11.6508C180.449 10.9008 180.649 10.3008 181.099 9.80078C181.549 9.30078 182.149 9.05078 182.999 9.05078C183.849 9.05078 184.449 9.30078 184.899 9.80078C185.349 10.3008 185.549 10.9008 185.549 11.6508C185.549 12.4008 185.349 13.0008 184.899 13.4508C184.449 13.9008 183.799 14.1508 182.999 14.1508C182.199 14.1508 181.549 13.9008 181.099 13.4508C180.649 13.0008 180.449 12.4008 180.449 11.6508ZM185.249 38.7008H180.749V17.2008H185.249V38.7008Z" fill="#171F39"/>
<path d="M202.3 36.6C201 38.25 199.1 39.1 196.65 39.1C194.45 39.1 192.8 38.4 191.7 37.05C190.6 35.7 190 33.7 190 31.15V17.25H194.5V31.1C194.5 33.85 195.55 35.2 197.65 35.2C199.85 35.2 201.3 34.35 202.1 32.7V17.25H206.6V38.75H202.35L202.3 36.6Z" fill="#171F39"/>
<path d="M215.501 17.2477L215.651 19.4977C217.051 17.7477 219.001 16.8477 221.451 16.8477C224.151 16.8477 225.951 17.9477 226.951 20.1477C228.401 17.9477 230.451 16.8477 233.101 16.8477C235.301 16.8477 236.951 17.4977 238.051 18.7977C239.151 20.0977 239.701 22.0477 239.701 24.5977V38.6977H235.201V24.6977C235.201 23.3477 234.901 22.3477 234.351 21.6977C233.801 21.0477 232.851 20.7477 231.601 20.7477C230.551 20.7477 229.751 21.0477 229.101 21.6477C228.451 22.2477 228.001 22.9977 227.751 23.9477V38.6977H223.251V24.5977C223.201 22.0477 222.001 20.7977 219.651 20.7977C217.851 20.7977 216.551 21.5977 215.801 23.1477V38.6977H211.301V17.1977H215.501V17.2477Z" fill="#171F39"/>
</g>
<path d="M10.1 19.8988L9.75 42.9988L0 37.6988L0.05 14.2988L10.1 19.8988Z" fill="#293560"/>
<path d="M0.800781 12.8484L10.5508 7.14844L20.6008 12.9484L10.8508 18.5484L0.800781 12.8484Z" fill="#293560"/>
<path d="M12.502 6.05L32.452 18.05L42.802 12.05L22.402 0L12.502 6.05Z" fill="#293560"/>
<path d="M11.6992 32.4492V44.1492L21.4492 49.9992V38.1992L11.6992 32.4492Z" fill="#293560"/>
<path d="M23.6992 38.3008L23.7492 50.0008L43.8992 39.1508V27.5508L23.6992 38.3008Z" fill="#293560"/>
<path d="M43.8996 14.0508V25.2508L33.5996 31.0508V19.7008L43.8996 14.0508Z" fill="#293560"/>
<path d="M22.6504 14.0996V25.1996L31.7004 30.6496V19.4996L22.6504 14.0996Z" fill="#8A9CC0"/>
<path d="M11.6992 19.9492V30.6492L21.4492 25.0492V14.4492L11.6992 19.9492Z" fill="#8A9CC0"/>
<path d="M13.1016 31.2998L22.6016 36.8498L31.7016 31.9998L22.0516 26.2498L13.1016 31.2998Z" fill="#8A9CC0"/>
</g>
<defs>
<clipPath id="clip0_2758_3895">
<rect width="240" height="50" fill="white"/>
</clipPath>
<clipPath id="clip1_2758_3895">
<rect width="240" height="50" fill="white"/>
</clipPath>
</defs>
</svg>
